<?xml version="1.0" standalone="no"?>
<!DOCTYPE svg PUBLIC "-//W3C//DTD SVG 20010904//EN"
 "http://www.w3.org/TR/2001/REC-SVG-20010904/DTD/svg10.dtd">
<svg version="1.0" xmlns="http://www.w3.org/2000/svg"
 width="128.000000pt" height="128.000000pt" viewBox="0 0 128.000000 128.000000"
 preserveAspectRatio="xMidYMid meet">

<g transform="translate(0.000000,128.000000) scale(0.100000,-0.100000)"
fill="#000000" stroke="none">
<path d="M690 1176 c0 -9 17 -16 49 -20 51 -7 199 -74 221 -101 11 -13 8 -15
-14 -15 -16 0 -26 -5 -26 -15 0 -12 13 -15 60 -15 l61 0 -3 55 c-3 56 -20 76
-26 30 -4 -30 -12 -31 -45 -5 -83 65 -277 126 -277 86z"/>
<path d="M690 906 c0 -83 0 -84 29 -96 33 -13 67 -69 58 -94 -9 -23 -36 -20
-46 7 -5 13 -16 29 -25 36 -14 12 -16 8 -16 -43 0 -52 2 -57 30 -71 30 -15 60
-60 60 -90 0 -30 -30 -73 -60 -87 -30 -13 -30 -13 -30 -97 l0 -83 37 7 c96 18
193 98 240 200 23 50 27 74 28 145 0 73 -4 94 -29 147 -18 39 -47 80 -77 108
-52 48 -138 95 -176 95 -22 0 -23 -4 -23 -84z"/>
<path d="M1097 914 c-3 -4 3 -24 13 -45 69 -134 66 -329 -6 -472 -62 -121
-222 -241 -358 -269 -35 -7 -56 -16 -56 -24 0 -20 41 -17 113 7 152 51 267
151 336 291 75 150 77 310 7 463 -24 52 -35 63 -49 49z"/>
<path d="M690 553 l0 -47 22 21 c19 19 20 26 10 48 -18 39 -32 30 -32 -22z"/>
</g>
</svg>
