<svg version="1.0" xmlns="http://www.w3.org/2000/svg"
 width="512.000000pt" height="512.000000pt" viewBox="0 0 512.000000 512.000000"
 preserveAspectRatio="xMidYMid meet">

<g transform="translate(0.000000,512.000000) scale(0.100000,-0.100000)"
fill="#AD565B" stroke="none">
<path d="M1365 4644 c-649 -216 -1199 -401 -1221 -409 -53 -20 -73 -59 -54
-105 15 -35 -13 -25 532 -206 l418 -139 0 -461 c0 -454 0 -462 21 -488 59 -76
424 -280 643 -361 651 -240 1394 -191 2006 132 136 71 313 187 345 225 l25 30
0 461 0 462 200 67 200 66 0 -316 -1 -317 -32 -20 c-28 -18 -43 -47 -119 -235
l-87 -215 -1 -98 c0 -96 1 -99 29 -128 l29 -29 262 0 262 0 29 29 c28 29 29
32 29 128 l-1 98 -87 215 c-76 188 -91 217 -119 235 l-32 20 2 344 2 344 179
61 c144 49 183 66 199 88 21 29 18 65 -8 91 -14 14 -2438 828 -2460 826 -6 0
-541 -178 -1190 -395z m2273 -125 c584 -195 1062 -356 1062 -359 0 -3 -480
-165 -1067 -361 l-1068 -356 -1067 356 c-588 195 -1068 357 -1068 361 0 7
2120 717 2135 715 6 -1 488 -161 1073 -356z m-1745 -1018 l667 -223 668 223
c367 122 673 224 680 227 10 3 12 -39 10 -204 l-3 -209 -85 -57 c-47 -32 -152
-91 -235 -132 -621 -312 -1345 -328 -1980 -45 -116 52 -289 149 -367 206 l-48
35 0 205 c0 160 3 204 13 201 6 -3 312 -105 680 -227z m-398 -536 c226 -107
490 -186 740 -222 179 -25 497 -23 680 5 329 51 652 167 923 330 l83 50 -3
-106 -3 -107 -85 -57 c-186 -125 -484 -254 -720 -311 -206 -50 -309 -62 -550
-62 -241 0 -344 12 -550 62 -236 57 -534 186 -720 311 l-85 57 -3 107 -3 107
93 -56 c51 -31 143 -80 203 -108z m3159 -10 c37 -93 66 -180 66 -200 l0 -35
-160 0 -160 0 0 35 c0 20 29 107 66 200 63 158 67 165 94 165 27 0 31 -7 94
-165z"/>
<path d="M2490 4298 c-48 -25 -90 -89 -90 -138 0 -14 10 -46 23 -70 24 -48 88
-90 137 -90 14 0 46 10 70 23 48 24 90 88 90 137 0 49 -42 113 -90 138 -24 12
-56 22 -70 22 -14 0 -46 -10 -70 -22z"/>
<path d="M3077 2069 c-78 -16 -146 -52 -266 -143 l-114 -86 -184 0 -183 0 -88
44 c-185 93 -372 129 -554 107 -194 -24 -313 -74 -548 -231 -154 -103 -248
-156 -258 -145 -4 4 -29 50 -57 103 -77 150 -47 150 -405 -3 -295 -126 -340
-152 -340 -192 0 -30 651 -1398 676 -1420 14 -13 33 -23 43 -23 27 0 582 318
614 351 15 16 27 36 27 44 0 9 -20 56 -45 105 -25 49 -45 94 -45 100 0 16 118
67 223 96 74 21 123 27 247 31 149 5 162 4 330 -31 212 -43 358 -60 465 -51
278 22 500 99 725 250 266 180 1026 724 1044 748 l20 27 -22 68 c-55 170 -163
256 -322 256 -64 0 -85 -4 -148 -33 l-72 -34 -48 21 c-26 12 -67 26 -92 33
-69 17 -200 13 -262 -9 -51 -18 -55 -18 -123 -1 -91 23 -179 30 -238 18z m122
-156 c0 -5 -25 -28 -55 -52 l-55 -43 -65 12 c-63 12 -64 12 -41 30 28 22 64
41 96 51 34 10 121 11 120 2z m460 1 c17 -4 31 -10 31 -13 0 -8 -344 -304
-359 -309 -5 -2 -11 7 -14 20 -4 13 -24 45 -47 72 l-40 48 87 70 c49 38 97 75
108 81 60 32 161 45 234 31z m486 -17 c24 -13 49 -40 63 -64 l22 -41 -517
-366 c-534 -378 -627 -435 -794 -489 -216 -71 -438 -74 -729 -11 -161 35 -187
38 -335 38 -214 0 -327 -26 -572 -131 -8 -3 -70 111 -172 316 l-161 321 72 36
c39 20 132 76 205 126 155 103 238 147 343 180 64 20 96 23 220 23 170 0 224
-13 409 -101 l114 -54 352 0 353 0 53 -28 c38 -19 64 -43 87 -77 l34 -50 -356
-3 -356 -2 0 -80 0 -80 406 0 c284 0 412 3 427 11 11 7 146 119 299 251 202
173 296 247 341 269 77 36 136 38 192 6z m-3170 -817 l284 -568 -211 -121
c-116 -67 -212 -120 -214 -118 -17 17 -564 1201 -558 1207 15 15 399 177 407
173 4 -3 136 -260 292 -573z"/>
</g>
</svg>
