<svg version="1.0" xmlns="http://www.w3.org/2000/svg"
 width="512.000000pt" height="512.000000pt" viewBox="0 0 512.000000 512.000000"
 preserveAspectRatio="xMidYMid meet">

<g transform="translate(0.000000,512.000000) scale(0.100000,-0.100000)"
fill="#AD565B" stroke="none">
<path d="M995 5109 c-514 -75 -911 -475 -985 -994 -13 -95 -13 -3015 0 -3110
75 -522 472 -920 995 -995 95 -13 3014 -13 3110 0 527 75 926 478 995 1003 7
56 10 563 7 1602 -3 1380 -5 1526 -20 1587 -124 498 -492 838 -982 908 -88 12
-3034 11 -3120 -1z m920 -664 c77 -20 157 -73 198 -131 45 -64 335 -550 359
-602 44 -98 42 -218 -7 -318 -15 -30 -65 -94 -117 -149 l-91 -96 6 -48 c8 -69
58 -193 116 -286 188 -304 534 -575 793 -621 37 -6 40 -4 135 86 132 125 193
155 319 155 84 0 95 -2 165 -37 40 -21 193 -109 339 -196 291 -175 328 -206
369 -316 25 -67 28 -183 7 -243 -13 -38 -203 -457 -253 -560 -50 -102 -156
-181 -271 -203 -114 -21 -473 52 -758 155 -118 43 -340 141 -416 184 -233 130
-409 246 -568 374 -681 547 -1143 1302 -1279 2091 -25 142 -26 205 -5 276 24
80 66 140 136 193 41 31 590 283 644 296 60 14 114 13 179 -4z"/>
<path d="M1554 3973 l-251 -115 14 -86 c125 -793 653 -1577 1389 -2064 293
-195 581 -325 898 -407 115 -29 314 -67 320 -60 3 4 200 435 222 486 l14 31
-218 130 c-119 71 -240 142 -268 158 l-52 29 -95 -92 c-143 -136 -234 -172
-387 -152 -96 13 -265 69 -358 119 -179 97 -307 196 -467 362 -219 227 -366
483 -411 716 -19 99 -18 159 5 231 22 72 47 108 154 218 l79 81 -158 266 c-87
146 -163 266 -169 265 -5 0 -123 -52 -261 -116z"/>
</g>
</svg>
