<?xml version="1.0" standalone="no"?>
<!DOCTYPE svg PUBLIC "-//W3C//DTD SVG 20010904//EN"
 "http://www.w3.org/TR/2001/REC-SVG-20010904/DTD/svg10.dtd">
<svg version="1.0" xmlns="http://www.w3.org/2000/svg"
 width="512.000000pt" height="512.000000pt" viewBox="0 0 512.000000 512.000000"
 preserveAspectRatio="xMidYMid meet">

<g transform="translate(0.000000,512.000000) scale(0.100000,-0.100000)"
fill="#AD565B" stroke="none">
<path d="M1265 5105 c-156 -28 -318 -93 -388 -155 -45 -39 -46 -55 -6 -69 74
-26 263 -6 405 43 133 45 264 125 264 162 0 33 -145 43 -275 19z"/>
<path d="M1540 4959 c-40 -32 -153 -87 -234 -114 -119 -40 -214 -57 -329 -58
-92 -1 -108 -4 -104 -17 2 -8 37 -138 78 -288 58 -216 78 -276 94 -285 12 -7
61 -12 120 -11 195 2 455 90 535 180 29 33 29 34 15 81 -7 27 -41 152 -75 278
-34 127 -65 235 -69 242 -4 8 -13 6 -31 -8z"/>
<path d="M1695 4254 c-65 -44 -174 -90 -294 -121 -76 -20 -122 -26 -222 -27
l-126 -1 9 -35 c14 -49 29 -62 90 -71 159 -26 511 78 597 176 27 31 28 37 19
74 -6 23 -13 41 -17 40 -3 0 -28 -16 -56 -35z"/>
<path d="M1750 4070 c-130 -90 -348 -154 -531 -154 l-116 -1 8 -25 c4 -14 13
-44 19 -67 13 -51 41 -63 145 -63 182 0 455 91 540 180 l27 29 -17 70 c-9 39
-18 71 -19 70 0 0 -26 -18 -56 -39z"/>
<path d="M5040 4020 c-402 -160 -934 -282 -1462 -336 -140 -14 -168 -20 -168
-33 0 -35 -59 -138 -102 -177 -171 -157 -425 -182 -683 -65 -37 17 -70 29 -73
27 -2 -3 1 -20 8 -39 13 -40 72 -111 131 -158 41 -32 41 -32 70 -15 49 29 89
37 131 25 49 -13 104 -61 118 -104 11 -33 12 -33 85 -40 40 -4 190 -5 332 -3
l258 5 175 75 c373 160 773 345 1093 504 l167 84 0 140 c0 77 -1 140 -2 140
-2 -1 -37 -14 -78 -30z"/>
<path d="M1520 3712 c-30 -8 -56 -16 -57 -17 -1 0 51 -199 116 -441 66 -241
124 -458 130 -481 11 -42 13 -43 54 -43 40 0 108 30 107 47 -1 5 -58 220 -129
478 -142 526 -123 485 -221 457z"/>
<path d="M4935 3584 c-727 -358 -1366 -627 -1915 -807 -102 -33 -186 -61 -188
-62 -1 -1 8 -28 19 -61 17 -45 22 -83 23 -164 1 -95 -2 -110 -27 -161 -51
-105 -165 -183 -313 -214 -88 -19 -285 -19 -390 -1 -237 42 -324 95 -392 239
l-28 59 -18 -27 c-28 -43 -46 -104 -46 -159 0 -146 155 -285 357 -321 227 -41
760 24 1043 127 629 228 1330 580 1918 964 l142 93 0 291 c0 159 -3 290 -7
289 -5 0 -84 -38 -178 -85z"/>
<path d="M2965 3648 c-137 -5 -268 -13 -290 -19 -39 -11 -105 -66 -105 -89 0
-16 138 -78 227 -101 140 -35 277 -20 387 45 52 30 116 100 133 145 l11 31
-56 -2 c-32 -1 -169 -5 -307 -10z"/>
<path d="M2173 3255 c-36 -15 -59 -67 -73 -163 -9 -66 -5 -112 10 -112 16 0
87 59 121 101 50 62 61 86 54 119 -11 52 -61 76 -112 55z"/>
<path d="M2788 3133 c-41 -44 -95 -136 -100 -173 -3 -22 0 -25 27 -22 50 5
164 63 195 99 33 37 36 53 18 86 -31 60 -88 63 -140 10z"/>
<path d="M5021 2924 c-498 -329 -1155 -668 -1726 -891 -104 -40 -200 -78 -212
-83 l-22 -9 33 -50 c42 -62 60 -135 54 -215 -18 -214 -243 -350 -603 -363
-216 -8 -337 25 -415 115 -45 50 -70 99 -85 166 l-11 48 -32 -27 c-47 -40 -65
-81 -66 -150 0 -50 5 -71 33 -122 88 -164 229 -236 512 -264 146 -14 301 -7
454 20 333 58 803 207 1315 416 153 63 395 221 728 477 l142 110 0 439 c0 241
-3 439 -7 439 -5 -1 -46 -26 -92 -56z"/>
<path d="M2261 2769 c-138 -44 -241 -63 -288 -54 -33 6 -73 -11 -73 -31 0 -5
18 -21 41 -33 50 -29 144 -38 218 -22 61 13 81 4 81 -35 0 -31 -25 -43 -108
-53 -120 -15 -220 12 -291 78 -25 23 -41 30 -71 29 -33 0 -40 -4 -40 -20 0
-33 38 -95 82 -132 117 -100 437 -114 622 -28 78 37 97 63 103 145 6 71 -8
133 -38 171 -29 37 -85 34 -238 -15z"/>
<path d="M2680 2672 l-55 -18 -6 -59 c-3 -33 -14 -77 -23 -97 -34 -71 -136
-126 -291 -155 -113 -22 -327 -14 -410 15 -33 11 -61 19 -63 18 -9 -9 70 -94
105 -114 117 -65 411 -101 561 -69 146 32 240 94 280 186 23 54 20 162 -7 244
-12 37 -26 67 -29 66 -4 0 -32 -8 -62 -17z"/>
<path d="M460 2603 c-11 -14 -19 -31 -17 -37 3 -8 106 -12 325 -14 317 -2 322
-2 322 18 0 11 -9 29 -20 40 -19 19 -33 20 -304 20 l-285 0 -21 -27z"/>
<path d="M362 2458 c-7 -7 -12 -26 -12 -43 0 -17 5 -36 12 -43 9 -9 113 -12
404 -12 344 0 395 2 408 16 18 18 20 47 6 75 -10 18 -25 19 -408 19 -296 0
-401 -3 -410 -12z"/>
<path d="M438 2108 l-3 -172 -62 -22 c-118 -40 -234 -133 -307 -243 -54 -83
-66 -118 -66 -198 l0 -65 76 71 c191 178 410 261 692 261 289 0 526 -93 714
-281 l48 -48 0 72 c0 98 -35 170 -128 269 -77 80 -154 132 -241 161 -31 10
-59 24 -63 30 -4 7 -8 85 -8 175 l0 162 -325 0 -325 0 -2 -172z"/>
<path d="M5095 1981 c-3 -6 -75 -62 -161 -126 -192 -145 -504 -354 -691 -465
l-143 -85 55 -55 c96 -98 120 -201 70 -299 -57 -113 -233 -201 -441 -220 -174
-16 -258 12 -368 122 l-70 69 -18 -24 c-21 -28 -32 -79 -24 -111 11 -45 73
-113 132 -144 89 -47 192 -65 379 -66 148 0 170 2 290 32 208 52 575 194 909
350 l106 50 0 490 c0 453 -3 516 -25 482z"/>
<path d="M2840 1869 c-138 -48 -440 -135 -602 -175 -135 -32 -134 -31 -98
-128 28 -72 89 -129 167 -153 88 -26 319 -24 434 4 178 45 285 119 314 216 19
64 19 90 -3 152 -18 52 -70 126 -87 124 -5 0 -62 -18 -125 -40z"/>
<path d="M593 1646 c-224 -43 -418 -158 -554 -329 l-39 -49 0 -502 c0 -587 -1
-577 85 -662 34 -33 75 -61 112 -76 l58 -23 515 0 515 0 63 29 c75 34 152 114
170 173 9 29 12 184 12 555 l0 514 -54 66 c-109 131 -288 243 -461 289 -103
27 -319 34 -422 15z"/>
<path d="M3735 1115 c-154 -78 -287 -144 -295 -148 -25 -10 98 -121 156 -141
84 -28 236 -17 364 28 169 59 244 161 192 262 -18 35 -83 105 -122 130 -11 7
-85 -25 -295 -131z"/>
</g>
</svg>
