<svg version="1.0" xmlns="http://www.w3.org/2000/svg"
 width="986.000000pt" height="1280.000000pt" viewBox="0 0 986.000000 1280.000000"
 preserveAspectRatio="xMidYMid meet">

<g transform="translate(0.000000,1280.000000) scale(0.100000,-0.100000)"
fill="#AD565B" stroke="none">
<path d="M8430 12793 c-210 -20 -268 -27 -364 -43 -211 -37 -474 -109 -496
-135 -8 -10 -18 -92 -26 -223 -18 -279 -103 -1610 -164 -2562 -27 -426 -52
-809 -55 -851 -8 -105 -4 -109 165 -153 243 -63 513 -112 730 -134 l75 -7 -3
-125 c-2 -69 -14 -507 -27 -975 -49 -1714 -49 -1733 -36 -1749 7 -8 28 -20 48
-27 l35 -11 -6 -117 c-4 -64 -11 -242 -16 -396 -13 -359 -28 -781 -40 -1107
-6 -141 -7 -263 -4 -271 6 -17 35 -27 78 -27 16 0 43 -8 60 -19 61 -37 142
-53 228 -45 79 7 79 7 191 86 62 43 118 85 125 92 11 11 10 44 -7 192 -126
1092 -181 1580 -181 1594 0 10 17 24 43 36 l42 19 6 105 c4 58 7 296 8 530 0
234 4 826 8 1316 l6 891 111 7 c187 11 449 45 706 92 166 30 168 31 180 55 7
13 3 183 -15 561 -13 299 -36 791 -50 1093 -14 303 -34 744 -45 980 -11 237
-27 583 -35 770 -9 187 -18 349 -20 361 -6 26 -47 44 -185 83 -294 83 -583
122 -885 119 -82 -1 -166 -3 -185 -5z"/>
<path d="M2665 12414 c-125 -10 -315 -36 -398 -55 -102 -22 -235 -65 -254 -81
-9 -7 -13 -46 -13 -134 l0 -123 -29 -15 c-44 -23 -98 -92 -110 -142 -21 -82
19 -168 100 -220 l39 -24 0 -79 c0 -72 -2 -79 -24 -89 -43 -19 -99 -76 -118
-120 -35 -79 1 -166 96 -232 l46 -31 0 -69 0 -68 -54 -31 c-89 -50 -128 -114
-128 -211 0 -93 49 -184 134 -246 48 -36 48 -36 48 -93 l0 -58 -162 -6 c-303
-12 -532 -40 -726 -88 -125 -31 -205 -60 -232 -84 -8 -7 -52 -32 -97 -55 -238
-122 -473 -395 -714 -830 l-64 -115 0 -3695 c0 -3990 -4 -3726 52 -3925 29
-101 60 -180 236 -596 132 -312 226 -510 276 -582 83 -121 245 -223 424 -267
200 -49 212 -49 1942 -50 1005 0 1666 4 1740 10 66 6 169 20 229 31 509 95
794 393 880 919 23 140 25 207 36 1010 6 404 15 940 20 1190 5 250 14 676 20
945 20 942 31 1430 61 2720 38 1612 42 2066 16 2182 -63 286 -179 482 -382
645 -103 83 -279 163 -445 203 -63 16 -121 29 -127 31 -7 2 -22 24 -34 49 -27
57 -84 107 -157 136 -31 13 -81 38 -112 56 -30 19 -82 42 -116 52 -125 39
-421 71 -656 71 l-118 0 0 204 0 204 44 26 c52 30 100 83 122 134 24 54 22
157 -4 207 -24 49 -101 122 -136 131 l-26 6 0 117 0 118 49 31 c176 114 166
331 -19 427 l-30 16 0 199 0 200 -38 19 c-86 44 -227 80 -422 107 -101 14
-557 26 -665 18z"/>
</g>
</svg>
