<?xml version="1.0" standalone="no"?>
<!DOCTYPE svg PUBLIC "-//W3C//DTD SVG 20010904//EN"
 "http://www.w3.org/TR/2001/REC-SVG-20010904/DTD/svg10.dtd">
<svg version="1.0" xmlns="http://www.w3.org/2000/svg"
 width="512.000000pt" height="512.000000pt" viewBox="0 0 512.000000 512.000000"
 preserveAspectRatio="xMidYMid meet">

<g transform="translate(0.000000,512.000000) scale(0.100000,-0.100000)"
fill="#000000" stroke="none">
<path d="M2485 3990 c-174 -28 -318 -149 -376 -319 -12 -35 -22 -97 -26 -166
l-5 -110 84 83 c78 76 85 87 96 140 18 86 56 157 118 222 64 68 124 106 203
130 46 15 50 18 30 23 -29 8 -57 7 -124 -3z"/>
<path d="M2158 3243 l-78 -78 0 -125 0 -125 80 80 81 81 -3 122 -3 123 -77
-78z"/>
<path d="M805 3189 c-198 -29 -366 -201 -395 -404 -13 -95 -13 -1081 1 -1165
27 -171 158 -302 329 -329 36 -6 88 -10 115 -10 l50 1 -39 9 c-62 15 -153 68
-197 116 -22 24 -55 74 -72 111 l-32 67 -3 589 c-2 391 1 607 8 641 28 137
129 268 253 330 38 19 77 35 86 35 14 0 14 2 1 10 -17 11 -22 11 -105 -1z"/>
<path d="M2158 2763 l-78 -78 0 -125 0 -125 80 80 81 81 -3 122 -3 123 -77
-78z"/>
<path d="M2196 2321 l-58 -59 62 -62 62 -62 41 40 40 40 -22 31 c-12 16 -32
53 -44 81 l-22 50 -59 -59z"/>
</g>
</svg>
