<svg version="1.0" xmlns="http://www.w3.org/2000/svg"
 width="512.000000pt" height="512.000000pt" viewBox="0 0 512.000000 512.000000"
 preserveAspectRatio="xMidYMid meet">

<g transform="translate(0.000000,512.000000) scale(0.100000,-0.100000)"
fill="#AD565B" stroke="none">
<path fill="" d="M2514 5102 c-11 -11 -39 -70 -63 -133 -55 -145 -106 -200 -222 -244
-150 -56 -167 -65 -180 -97 -19 -47 3 -77 81 -110 36 -15 68 -29 72 -30 3 -2
-18 -51 -47 -110 -95 -193 -174 -471 -205 -718 -5 -46 -10 -163 -10 -258 l0
-174 -47 -52 c-105 -116 -186 -277 -217 -428 -11 -55 -16 -136 -16 -280 l-1
-203 -22 30 c-12 17 -40 50 -63 75 l-41 45 -6 200 c-7 209 -14 283 -48 452
l-20 102 32 76 c42 102 78 135 189 175 98 35 123 56 123 100 0 43 -25 64 -111
95 -134 47 -164 77 -218 221 -33 88 -47 104 -95 104 -46 0 -55 -11 -99 -127
-18 -46 -35 -85 -40 -88 -5 -3 -24 17 -44 43 -87 119 -198 192 -292 192 -193
0 -410 -289 -531 -705 -58 -201 -84 -380 -90 -620 l-6 -209 -69 -86 c-79 -96
-147 -227 -180 -345 l-23 -80 -3 -933 -3 -932 25 -25 c30 -30 65 -32 97 -6
l24 19 5 929 c6 1040 1 967 82 1133 l42 85 7 -90 c13 -162 71 -292 177 -400
198 -201 486 -247 737 -117 94 49 208 163 257 257 46 90 68 164 76 267 l7 83
37 -75 c20 -41 47 -109 59 -150 22 -72 23 -92 27 -577 l3 -503 26 -20 c14 -11
32 -20 39 -20 26 0 62 23 73 47 8 17 11 280 11 902 0 845 1 881 20 957 21 83
84 224 101 224 5 0 9 -31 9 -68 0 -215 139 -432 340 -529 109 -53 173 -67 290
-66 124 1 230 34 333 103 165 110 256 264 277 465 5 48 11 90 14 93 10 9 76
-142 96 -222 19 -75 20 -110 20 -677 l0 -598 -38 -99 c-63 -163 -104 -201
-287 -271 -116 -44 -145 -66 -145 -110 0 -40 32 -63 148 -106 174 -64 220
-107 283 -265 l34 -85 5 -248 c5 -247 5 -249 29 -268 30 -25 62 -24 95 2 l26
20 0 229 0 229 40 105 c67 173 110 215 285 280 55 21 110 44 122 52 48 31 37
106 -19 128 -18 7 -76 30 -129 50 -152 58 -198 106 -262 279 l-37 97 0 343 c0
188 5 380 10 426 12 88 53 214 93 281 l24 41 6 -83 c4 -46 14 -108 23 -138 20
-70 79 -182 115 -221 33 -35 79 -39 109 -9 31 31 25 72 -20 141 -61 95 -72
140 -77 332 l-5 169 64 62 c205 201 576 211 811 23 71 -58 77 -76 77 -243 0
-217 -26 -296 -133 -411 -107 -114 -261 -166 -418 -142 -79 12 -113 0 -125
-45 -15 -62 20 -91 126 -106 185 -26 386 44 522 184 106 109 164 239 177 401
l7 90 42 -85 c82 -168 76 -68 82 -1333 l5 -1129 24 -19 c32 -26 67 -24 97 6
l25 25 -3 1132 -3 1133 -23 80 c-33 117 -103 250 -181 346 l-68 85 -6 205 c-5
229 -23 360 -73 559 -116 452 -342 770 -549 770 -180 0 -376 -244 -504 -626
-76 -229 -109 -430 -118 -719 l-6 -200 -41 -45 c-23 -25 -51 -58 -63 -75 l-21
-30 -7 30 c-45 214 -97 327 -214 464 l-55 65 -7 225 c-7 228 -32 422 -64 497
-25 60 -94 65 -130 11 -14 -22 -14 -31 0 -96 22 -105 21 -106 -32 -65 -111 85
-222 118 -393 118 -171 0 -282 -33 -393 -118 -55 -42 -55 -42 -26 87 42 190
168 512 206 524 19 7 70 -79 109 -183 44 -119 55 -134 104 -134 49 0 60 15
104 134 39 104 90 190 109 183 7 -2 33 -45 59 -97 25 -51 52 -97 60 -101 7 -5
27 -9 45 -9 34 0 73 37 73 71 0 9 -22 62 -49 116 -28 54 -47 99 -43 101 154
63 176 83 153 140 -13 32 -31 41 -178 96 -81 31 -154 89 -184 147 -10 21 -33
77 -50 125 -17 47 -41 94 -52 105 -26 24 -67 24 -93 1z m70 -316 c25 -47 113
-134 159 -157 20 -11 37 -23 37 -27 0 -4 -21 -18 -46 -31 -50 -27 -128 -108
-152 -158 -9 -18 -19 -33 -22 -33 -3 0 -13 15 -22 33 -24 50 -102 131 -152
158 -25 13 -46 27 -46 31 0 4 17 16 38 27 46 24 126 103 155 154 11 20 23 37
27 37 3 0 14 -15 24 -34z m1684 -590 c40 -21 122 -112 165 -183 83 -137 158
-333 201 -525 14 -64 26 -118 26 -122 0 -3 -20 9 -45 28 -109 84 -231 120
-400 120 -169 0 -276 -32 -396 -120 l-46 -34 8 48 c62 332 219 670 361 772 45
33 84 38 126 16z m-3290 -416 c47 -34 135 -141 124 -151 -4 -3 -29 -14 -57
-24 -59 -21 -85 -47 -85 -85 0 -42 27 -65 119 -99 102 -38 134 -60 165 -114
32 -56 71 -175 89 -269 l15 -78 -48 35 c-56 41 -170 95 -200 95 -28 0 -70 -44
-70 -73 0 -35 31 -70 76 -86 128 -45 246 -180 270 -305 l7 -40 -34 23 c-58 38
-171 90 -239 108 -48 13 -102 18 -210 18 -124 0 -156 -3 -220 -23 -78 -25
-175 -70 -224 -105 l-29 -21 6 39 c9 54 50 135 97 188 51 57 121 102 201 128
97 32 123 76 77 134 -20 25 -25 27 -71 22 -58 -7 -160 -53 -229 -102 -26 -19
-48 -32 -48 -29 0 4 12 58 26 122 60 267 169 511 287 639 82 90 135 104 205
53z m1682 -21 c92 -14 181 -59 249 -124 64 -61 121 -162 121 -214 l0 -32 -45
31 c-112 77 -264 120 -425 120 -161 0 -313 -43 -425 -120 l-45 -31 0 32 c0 52
57 153 121 214 116 110 270 153 449 124z m-1247 -139 c15 -22 45 -52 67 -67
22 -15 40 -30 40 -33 0 -3 -18 -18 -40 -33 -22 -15 -52 -45 -67 -67 -15 -22
-30 -39 -33 -39 -3 0 -17 18 -32 39 -16 22 -46 52 -68 68 -21 15 -39 29 -39
32 0 3 18 17 39 32 22 16 52 46 68 68 15 21 29 39 32 39 3 0 18 -17 33 -39z
m1302 -245 c132 -34 274 -125 309 -199 19 -40 21 -163 6 -296 -37 -329 -378
-517 -678 -375 -95 45 -168 119 -219 222 l-38 77 -3 189 -4 189 57 55 c60 58
160 112 255 137 73 20 240 20 315 1z m1620 -20 c98 -21 171 -59 238 -126 61
-61 117 -163 117 -212 l0 -28 -27 19 c-49 34 -146 79 -223 104 -64 20 -96 23
-220 23 -108 0 -162 -5 -210 -18 -68 -18 -181 -70 -239 -108 l-34 -23 7 39 c4
21 21 64 36 96 95 187 322 283 555 234z m-3276 -780 c99 -24 188 -72 259 -140
l62 -61 0 -142 c0 -94 -5 -167 -16 -212 -33 -148 -153 -285 -293 -335 -183
-64 -365 -23 -502 114 -110 112 -139 196 -139 416 0 143 1 152 25 187 27 39
96 93 163 127 113 57 307 77 441 46z m2359 -1378 c34 -60 131 -155 186 -181
20 -9 36 -18 36 -20 0 -2 -26 -19 -58 -39 -67 -42 -127 -102 -167 -171 l-28
-47 -29 52 c-38 66 -108 136 -176 175 l-53 31 43 19 c55 24 168 137 192 192
10 23 20 42 22 42 1 0 16 -24 32 -53z"/>
<path d="M2720 1995 c-99 -25 -179 -28 -278 -11 -50 9 -103 16 -117 16 -55 0
-85 -80 -46 -119 78 -78 498 -73 561 6 25 32 26 64 3 91 -24 28 -57 33 -123
17z"/>
<path d="M2147 1729 c-52 -30 -40 -108 21 -132 101 -40 193 -52 397 -51 184 0
208 3 300 27 136 36 173 78 124 141 -26 33 -54 33 -162 4 -71 -20 -107 -23
-272 -23 -165 0 -201 3 -272 23 -91 25 -110 26 -136 11z"/>
<path d="M4403 1600 c-57 -23 -189 -33 -274 -20 -158 24 -165 24 -188 1 -25
-25 -27 -68 -6 -98 17 -24 105 -47 220 -58 112 -11 315 24 343 58 6 7 13 24
17 39 6 22 1 33 -23 58 -31 31 -51 35 -89 20z"/>
<path d="M3791 1315 c-43 -55 -19 -106 62 -129 133 -38 228 -48 402 -43 140 4
187 9 269 31 54 14 107 33 117 42 26 23 25 85 0 109 -23 20 -58 18 -201 -14
-132 -29 -328 -29 -460 0 -156 35 -164 35 -189 4z"/>
<path d="M1066 1195 c-88 -24 -184 -28 -284 -11 -50 9 -103 16 -115 16 -52 0
-80 -78 -42 -119 64 -71 485 -71 556 0 29 29 25 83 -7 108 -30 24 -40 24 -108
6z"/>
<path d="M481 921 c-30 -30 -28 -84 4 -110 76 -59 440 -92 630 -56 126 23 194
44 216 66 25 25 24 74 -2 100 -24 24 -51 23 -199 -10 -132 -29 -328 -29 -460
0 -149 33 -165 34 -189 10z"/>
<path d="M1680 620 c-19 -19 -20 -33 -20 -299 l0 -280 26 -20 c15 -12 37 -21
50 -21 28 0 61 30 69 62 3 13 5 140 3 282 -3 257 -3 258 -27 277 -30 25 -76
24 -101 -1z"/>
</g>
</svg>
